HIERARCHY
ROOT Hips
{
 OFFSET 0.000000 0.000000 0.000000
 CHANNELS 6 Xposition Yposition Zposition Yrotation Xrotation Zrotation
 JOINT Chest
 {
  OFFSET 0.000000 9.581000 -0.001100
  CHANNELS 3 Yrotation Xrotation Zrotation
  JOINT Chest2
  {
   OFFSET 0.000000 9.561100 0.002200
   CHANNELS 3 Yrotation Xrotation Zrotation
   JOINT Chest3
   {
    OFFSET 0.000000 9.521100 0.000000
    CHANNELS 3 Yrotation Xrotation Zrotation
    JOINT Chest4
    {
     OFFSET 0.000000 9.511400 0.000000
     CHANNELS 3 Yrotation Xrotation Zrotation
     JOINT Neck
     {
      OFFSET 0.000000 14.375100 0.000000
      CHANNELS 3 Yrotation Xrotation Zrotation
      JOINT Head
      {
       OFFSET 0.000000 8.901200 0.004600
       CHANNELS 3 Yrotation Xrotation Zrotation
       End Site
       {
        OFFSET 0.000000 16.962200 0.002400
       }
      }
     }
     JOINT RightCollar
     {
      OFFSET -2.920100 9.518800 0.000000
      CHANNELS 3 Yrotation Xrotation Zrotation
      JOINT RightShoulder
      {
       OFFSET -13.664500 0.000000 0.000000
       CHANNELS 3 Yrotation Xrotation Zrotation
       JOINT RightElbow
       {
        OFFSET 0.000000 -29.999200 0.000000
        CHANNELS 3 Yrotation Xrotation Zrotation
        JOINT RightWrist
        {
         OFFSET 0.000000 -24.253600 0.000000
         CHANNELS 3 Yrotation Xrotation Zrotation
         End Site
         {
          OFFSET 0.000000 -17.918900 0.000000
         }
        }
       }
      }
     }
     JOINT LeftCollar
     {
      OFFSET 2.920100 9.518800 0.000000
      CHANNELS 3 Yrotation Xrotation Zrotation
      JOINT LeftShoulder
      {
       OFFSET 13.664500 0.000000 0.000000
       CHANNELS 3 Yrotation Xrotation Zrotation
       JOINT LeftElbow
       {
        OFFSET 0.000000 -29.999200 0.000000
        CHANNELS 3 Yrotation Xrotation Zrotation
        JOINT LeftWrist
        {
         OFFSET 0.000000 -24.253600 0.000000
         CHANNELS 3 Yrotation Xrotation Zrotation
         End Site
         {
          OFFSET 0.000000 -17.918900 0.000000
         }
        }
       }
      }
     }
    }
   }
  }
 }
 JOINT RightHip
 {
  OFFSET -7.797300 0.005300 0.000500
  CHANNELS 3 Yrotation Xrotation Zrotation
  JOINT RightKnee
  {
   OFFSET 0.000000 -40.663400 -0.000500
   CHANNELS 3 Yrotation Xrotation Zrotation
   JOINT RightAnkle
   {
    OFFSET 0.000000 -39.523700 -0.000900
    CHANNELS 3 Yrotation Xrotation Zrotation
    JOINT RightToe
    {
     OFFSET 0.000000 -6.418000 14.485300
     CHANNELS 3 Yrotation Xrotation Zrotation
     End Site
     {
      OFFSET 0.000000 -1.465200 6.326400
     }
    }
   }
  }
 }
 JOINT LeftHip
 {
  OFFSET 7.797300 0.005300 0.000500
  CHANNELS 3 Yrotation Xrotation Zrotation
  JOINT LeftKnee
  {
   OFFSET 0.000000 -40.663400 -0.000500
   CHANNELS 3 Yrotation Xrotation Zrotation
   JOINT LeftAnkle
   {
    OFFSET 0.000000 -39.523700 -0.000900
    CHANNELS 3 Yrotation Xrotation Zrotation
    JOINT LeftToe
    {
     OFFSET 0.000000 -6.418000 14.485300
     CHANNELS 3 Yrotation Xrotation Zrotation
     End Site
     {
      OFFSET 0.000000 -1.465200 6.326400
     }
    }
   }
  }
 }
}
MOTION
Frames: 9
Frame Time: 0.008333
0.000000 86.422400 0.000000 0.000000 -5.767877 0.000000 0.000000 11.653817 0.000000 0.000000 -5.885947 0.000000 0.000000 -0.000000 0.000000 0.000000 -0.000000 0.000000 0.000000 12.528835 0.000000 0.000000 0.711642 0.000000 0.000000 -0.000000 0.000000 0.000000 0.000000 -90.000000 0.000000 -2.309062 0.000000 0.000000 2.309062 0.000000 0.000000 -0.000000 0.000000 0.000000 -0.000000 90.000000 0.000000 -2.309062 0.000000 0.000000 2.309062 0.000000 0.000000 8.520406 0.000000 0.000000 1.905762 0.000000 -0.000000 -4.658285 0.000000 0.000000 -0.000000 0.000000 0.000000 8.520406 0.000000 0.000000 1.905762 0.000000 -0.000000 -4.658285 0.000000 0.000000 -0.000000 0.000000
-9.239638 126.395569 2.040367 171.099193 -27.749973 -2.765801 2.570327 20.328265 2.432195 0.276970 2.604963 0.256343 0.451728 4.262430 0.424742 2.127106 17.449043 2.010593 8.358982 17.022602 -1.710555 9.590855 -7.428542 -3.842409 -4.258142 -1.903021 -0.009738 6.730565 -12.408467 -7.100168 79.000490 -63.335809 -57.048516 6.191869 12.288672 -25.308458 -6.396362 -2.754078 3.002230 -8.584356 -20.042743 4.946265 -51.967449 -61.860819 40.627270 -27.890688 6.114980 14.399912 -2.643896 -54.606608 5.819632 -107.517260 84.560659 -109.745963 12.070028 -21.254108 3.482414 0.006786 -0.022821 0.003006 -4.241108 -47.104441 -3.802907 44.523654 83.337403 37.504328 1.736993 -10.248777 5.698111 -0.000925 -0.004403 -0.000410
-9.240168 126.396122 2.040264 171.125452 -27.761595 -2.783714 2.545471 20.335799 2.435410 0.272906 2.607519 0.256729 0.456450 4.264867 0.425761 2.092094 17.438545 2.012617 8.345660 17.034587 -1.730579 9.462488 -7.425341 -3.841604 -4.219494 -1.899918 -0.021930 6.757153 -12.429575 -7.088955 78.905975 -63.383264 -56.932144 6.165980 12.270664 -25.304345 -6.367393 -2.760238 2.984208 -8.583110 -20.031423 4.954010 -51.913747 -61.873769 40.558078 -27.908486 6.121714 14.417335 -2.579697 -54.596358 5.759030 -107.033783 84.527715 -109.247610 12.131742 -21.032174 3.454031 0.008777 -0.004050 0.003889 -4.272874 -47.091652 -3.792515 44.495481 83.336020 37.476364 1.741475 -10.245981 5.697755 -0.001432 -0.003503 -0.000634
-9.241714 126.397746 2.038259 171.162790 -27.788491 -2.800987 2.512834 20.353648 2.433220 0.269931 2.615047 0.259275 0.446537 4.251337 0.424697 2.088157 17.441647 2.013472 8.243788 17.052930 -1.755884 9.399790 -7.408681 -3.848173 -4.198282 -1.913099 -0.019669 6.786725 -12.430391 -7.085529 78.812865 -63.432543 -56.825141 6.161238 12.275816 -25.289685 -6.359136 -2.762936 2.974760 -8.584278 -20.021879 4.961174 -51.850618 -61.885779 40.473576 -27.927442 6.127076 14.437200 -2.579108 -54.567442 5.734802 -106.658548 84.491449 -108.901122 12.198878 -20.848636 3.412726 0.009676 0.000523 0.004287 -4.312531 -47.059922 -3.784901 44.441983 83.334002 37.416757 1.741829 -10.244011 5.699919 -0.001232 -0.000687 -0.000546
-9.245704 126.397933 2.038877 171.178005 -27.800351 -2.797499 2.496361 20.360153 2.420538 0.267687 2.595008 0.254406 0.445087 4.262642 0.428442 2.084924 17.448484 2.016939 8.131601 17.078801 -1.780148 9.331443 -7.377496 -3.850831 -4.170711 -1.966397 -0.016670 6.821714 -12.434715 -7.066662 78.640912 -63.451923 -56.644059 6.175320 12.302922 -25.286824 -6.401034 -2.815355 2.967683 -8.551917 -19.967631 4.965641 -51.816116 -61.884219 40.436921 -27.925954 6.120015 14.435245 -2.472352 -54.550524 5.636907 -105.771395 84.357800 -108.027270 12.341778 -20.699182 3.404153 -0.010401 0.004548 -0.004609 -4.326499 -47.047390 -3.789947 44.401970 83.329334 37.373651 1.737808 -10.238957 5.693361 0.001915 -0.001353 0.000848
-9.246824 126.397235 2.042486 171.184290 -27.800409 -2.810666 2.494289 20.352848 2.428600 0.266868 2.588928 0.252985 0.441816 4.257089 0.428220 2.084159 17.457455 2.021318 8.038031 17.119538 -1.796619 9.234544 -7.330851 -3.846835 -4.161784 -1.966185 -0.017989 6.841589 -12.460974 -7.054681 78.584850 -63.458709 -56.558549 6.177611 12.331505 -25.305852 -6.418775 -2.837662 2.966942 -8.552046 -19.947556 4.967587 -51.777238 -61.876001 40.406819 -27.927235 6.118225 14.434220 -2.358560 -54.535647 5.550617 -104.821181 84.282220 -107.031655 12.408610 -20.558578 3.375126 -0.010513 0.010017 -0.004659 -4.360016 -47.047023 -3.760432 44.283755 83.324062 37.254967 1.739634 -10.229989 5.687187 0.004038 -0.001702 0.001789
-9.247819 126.396681 2.046414 171.195627 -27.802543 -2.827779 2.489238 20.334123 2.434177 0.265058 2.597781 0.257395 0.441052 4.262133 0.429737 2.071700 17.448480 2.021265 7.950039 17.177110 -1.810846 9.132366 -7.276098 -3.839744 -4.132785 -1.998575 -0.023408 6.853492 -12.452562 -7.036396 78.542020 -63.442729 -56.486307 6.153805 12.358372 -25.257766 -6.417344 -2.839033 2.963907 -8.562032 -19.942353 4.969575 -51.740423 -61.866035 40.384310 -27.933236 6.111104 14.426433 -2.333466 -54.523688 5.533859 -103.989773 84.218801 -106.206601 12.479625 -20.432046 3.369729 -0.005768 0.006726 -0.002556 -4.428556 -47.044633 -3.707217 44.225411 83.317689 37.171642 1.741216 -10.223513 5.683220 0.003993 0.001121 0.001769
-9.249945 126.396356 2.050232 171.202022 -27.808726 -2.835908 2.485531 20.337228 2.438986 0.264200 2.589585 0.256553 0.440152 4.266637 0.430233 2.062057 17.440859 2.021815 7.860506 17.236035 -1.822298 9.027923 -7.221664 -3.830433 -4.109262 -2.036289 -0.029212 6.878209 -12.444564 -7.017697 78.500491 -63.407275 -56.421836 6.151441 12.379070 -25.227036 -6.419157 -2.843791 2.961186 -8.556652 -19.927545 4.967353 -51.749999 -61.867788 40.375028 -27.930910 6.126659 14.434642 -2.320157 -54.511801 5.525325 -103.274618 84.150786 -105.525341 12.567110 -20.325103 3.390616 -0.006085 0.003071 -0.002696 -4.464637 -47.040202 -3.686777 44.200667 83.306106 37.141163 1.744551 -10.212175 5.674623 0.003370 0.002141 0.001493
-9.253144 126.396236 2.053984 171.211437 -27.818865 -2.838899 2.478881 20.338395 2.436475 0.258832 2.586599 0.257264 0.437120 4.257886 0.430441 2.062937 17.452645 2.025673 7.815305 17.267650 -1.829793 8.877221 -7.156704 -3.805218 -4.091207 -2.131020 -0.027861 6.898108 -12.374985 -7.003429 78.491852 -63.368224 -56.386321 6.125790 12.402398 -25.236646 -6.446806 -2.876900 2.954205 -8.567461 -19.901119 4.976400 -51.714125 -61.852910 40.340426 -27.921229 6.143708 14.448285 -2.297716 -54.497397 5.507805 -102.713246 84.084595 -105.000375 12.624364 -20.239460 3.426099 -0.014802 0.002224 -0.006558 -4.500740 -47.032841 -3.677913 44.220501 83.291597 37.153532 1.748157 -10.202826 5.667504 0.002264 0.003619 0.001003
